<svg width="164" height="38" viewBox="0 0 164 38" fill="none" xmlns="http://www.w3.org/2000/svg">
<g filter="url(#filter0_d_55_3)">
<path d="M13.28 20.88L13.24 20.32L11.48 16.8C11.4 16.96 11.36 17.1733 11.36 17.44V17.88C11.36 17.9867 11.36 18.1867 11.36 18.48C11.3867 18.7467 11.4133 19.0267 11.44 19.32C11.4667 19.6133 11.48 19.8933 11.48 20.16C11.5067 20.4 11.52 20.56 11.52 20.64V22.92C11.52 23.16 11.5067 23.32 11.48 23.4C11.5067 23.4267 11.52 23.48 11.52 23.56C11.52 23.8 11.48 24.1067 11.4 24.48C11.32 24.8533 11.28 25.1467 11.28 25.36C11.28 25.7067 11.32 26.28 11.4 27.08C11.32 27.4 11.28 27.6133 11.28 27.72C11.28 27.88 11.2933 28 11.32 28.08C11.3733 28.1333 11.4 28.24 11.4 28.4V28.72C11.4 28.72 11.3733 28.8533 11.32 29.12L11.2 28.88C11.04 29.04 10.8933 29.12 10.76 29.12C10.68 29.12 10.6133 29.0933 10.56 29.04C10.5333 28.9867 10.4933 28.96 10.44 28.96C10.2533 28.96 9.98667 29.0133 9.64 29.12C8.86667 29.0133 8.26667 28.9733 7.84 29C7.41333 29.0533 7.05333 29.0267 6.76 28.92C6.62667 28.9467 6.49333 28.96 6.36 28.96C6.22667 28.9333 6.09333 28.9467 5.96 29L5.48 29.2L5.2 29C5.2 29.0267 5.16 29.04 5.08 29.04C5.02667 29.04 5 29.0133 5 28.96C5.08 28.72 5.12 28.3867 5.12 27.96C5.12 27.5867 5.09333 27.2133 5.04 26.84C5.01333 26.44 5 26.08 5 25.76C5 25.5467 5.01333 25.3467 5.04 25.16C5.06667 24.9733 5.08 24.7733 5.08 24.56C5.08 24.0267 5.02667 23.64 4.92 23.4C4.92 23.4533 4.92 23.1067 4.92 22.36C4.94667 21.5867 4.96 20.6133 4.96 19.44C4.98667 18.2667 5 16.9867 5 15.6C5.02667 14.1867 5.04 12.88 5.04 11.68C5.06667 10.4533 5.08 9.42667 5.08 8.6C5.10667 7.74666 5.12 7.29333 5.12 7.24C5.09333 7.18667 5.08 7.05333 5.08 6.84V6.44C5.08 5.8 5.10667 5.16 5.16 4.52C5.21333 3.85333 5.24 3.2 5.24 2.56V1.52C5.24 1.14667 5.32 0.906665 5.48 0.799998C5.66667 0.693331 5.89333 0.639998 6.16 0.639998C6.32 0.639998 6.50667 0.666665 6.72 0.719999C6.93333 0.746666 7.14667 0.759999 7.36 0.759999C7.73333 0.759999 8.12 0.706665 8.52 0.599998C8.92 0.466665 9.33333 0.399999 9.76 0.399999C10 0.399999 10.24 0.533332 10.48 0.799998C10.7467 1.06666 10.9867 1.37333 11.2 1.72C11.4133 2.06667 11.5867 2.4 11.72 2.72C11.88 3.01333 11.9733 3.21333 12 3.32C12.1067 3.61333 12.2933 3.94666 12.56 4.32C12.8533 4.69333 13.12 5.06666 13.36 5.44C13.44 5.54667 13.52 5.74667 13.6 6.04C13.68 6.33333 13.7733 6.64 13.88 6.96C13.9867 7.28 14.08 7.57333 14.16 7.84C14.24 8.10666 14.32 8.28 14.4 8.36C14.48 8.65333 14.64 8.92 14.88 9.16C15.12 9.4 15.24 9.68 15.24 10L15.4 10.16C15.3733 10.16 15.3467 10.1733 15.32 10.2C15.5333 10.4133 15.68 10.6267 15.76 10.84C15.8667 11.0267 16.0133 11.2267 16.2 11.44C16.28 11.4133 16.32 11.36 16.32 11.28C16.32 11.2267 16.3067 11.1733 16.28 11.12C16.2533 11.04 16.24 10.9733 16.24 10.92C16.24 10.84 16.2533 10.7867 16.28 10.76L16.36 10.84C16.36 10.6 16.3467 10.4133 16.32 10.28C16.32 10.1467 16.3067 9.98667 16.28 9.8C16.28 9.58667 16.2533 9.32 16.2 9C16.1467 8.65333 16.08 8.16 16 7.52L16.08 7.64C16.08 7.66666 16.0667 7.4 16.04 6.84C16.04 6.25333 16.0267 5.61333 16 4.92C16 4.22667 15.9867 3.6 15.96 3.04C15.96 2.48 15.96 2.21333 15.96 2.24C15.96 2.21333 15.9333 2.09333 15.88 1.88C15.9867 1.74667 16.0133 1.53333 15.96 1.24C15.9333 0.946665 16 0.706665 16.16 0.52C16.2933 0.546666 16.4133 0.573332 16.52 0.599998C16.6533 0.599998 16.7867 0.599998 16.92 0.599998C17.24 0.599998 17.5333 0.586665 17.8 0.559999C18.0933 0.533333 18.3867 0.52 18.68 0.52C19 0.493332 19.3467 0.466664 19.72 0.439998C20.12 0.413332 20.5867 0.399999 21.12 0.399999C21.1733 0.399999 21.2267 0.413332 21.28 0.439998C21.3333 0.439998 21.3733 0.439998 21.4 0.439998L21.44 0.399999C21.6 0.399999 21.88 0.466665 22.28 0.599998L22.24 0.719999C22.2133 0.719999 22.1733 0.759999 22.12 0.839998C22.0667 0.893332 22.04 0.933332 22.04 0.959999C22.04 1.04 22.0667 1.10667 22.12 1.16C22.2 1.21333 22.24 1.26667 22.24 1.32C22.24 1.34667 22.2267 1.37333 22.2 1.4C22.2533 1.93333 22.2933 2.46667 22.32 3C22.3467 3.53333 22.36 4.06667 22.36 4.6C22.36 5.8 22.32 6.97333 22.24 8.12C22.1867 9.26667 22.16 10.44 22.16 11.64C22.16 13.16 22.1733 14.6533 22.2 16.12C22.2267 17.56 22.24 19.04 22.24 20.56C22.24 21.3333 22.2267 22.0933 22.2 22.84C22.2 23.56 22.1733 24.3067 22.12 25.08C22.1733 25.8533 22.2 26.5867 22.2 27.28C22.2267 27.9733 22.2667 28.4 22.32 28.56C22.32 28.56 22.3067 28.5733 22.28 28.6C22.28 28.6 22.24 28.6133 22.16 28.64C22.1067 28.6667 22 28.72 21.84 28.8C21.68 28.8533 21.44 28.9333 21.12 29.04H20.6C20.2533 29.04 19.92 29.0267 19.6 29C19.28 29 18.9467 29 18.6 29C18.36 29 18.12 29 17.88 29C17.64 29.0267 17.4133 29.0533 17.2 29.08L17 29.28C17 29.2267 16.9733 29.1867 16.92 29.16C16.8933 29.1333 16.8667 29.0933 16.84 29.04C16.4133 28.6133 16.0933 28.2667 15.88 28C15.6933 27.7333 15.52 27.4133 15.36 27.04C15.2267 26.64 15.0667 26.12 14.88 25.48C14.72 24.84 14.4667 23.96 14.12 22.84L13.72 21.72C13.72 21.7467 13.7067 21.76 13.68 21.76C13.5733 21.76 13.44 21.4667 13.28 20.88ZM21.44 28.32H21.64L21.6 27.44H21.68C21.6533 27.36 21.64 27.16 21.64 26.84V26.24C21.64 25.6267 21.6533 25.0133 21.68 24.4C21.7067 23.7867 21.72 23.1733 21.72 22.56C21.72 22.32 21.72 21.8 21.72 21C21.72 20.2 21.7067 19.2533 21.68 18.16C21.68 17.04 21.68 15.8533 21.68 14.6C21.68 13.32 21.6667 12.1067 21.64 10.96C21.64 9.81333 21.64 8.78667 21.64 7.88C21.64 6.97333 21.64 6.33333 21.64 5.96C21.64 5.4 21.6267 4.84 21.6 4.28C21.6 3.69333 21.5867 3.12 21.56 2.56L21.36 2.2L21.56 2.12V1.96C21.56 1.72 21.5067 1.49333 21.4 1.28C21.3467 1.28 21.28 1.29333 21.2 1.32C21.12 1.32 21.0133 1.33333 20.88 1.36C20.72 1.33333 20.56 1.32 20.4 1.32C20.24 1.29333 20.08 1.28 19.92 1.28H19.04C18.6667 1.28 18.2933 1.29333 17.92 1.32C17.5467 1.32 17.1733 1.32 16.8 1.32C16.72 2.25333 16.6667 3.2 16.64 4.16C16.6133 5.12 16.6 6.08 16.6 7.04C16.6 7.81333 16.6 8.58667 16.6 9.36C16.6267 10.1067 16.6533 10.8667 16.68 11.64L16.44 11.96C16.3867 11.96 16.28 11.88 16.12 11.72C15.96 11.56 15.8 11.3867 15.64 11.2C15.48 11.0133 15.32 10.84 15.16 10.68C15.0267 10.52 14.9467 10.44 14.92 10.44L14.48 9.68C14.1867 8.98667 13.9333 8.34667 13.72 7.76C13.5067 7.14667 13.2533 6.52 12.96 5.88C12.6667 5.24 12.2933 4.54666 11.84 3.8C11.3867 3.05333 10.7867 2.18666 10.04 1.2C9.93333 1.2 9.82667 1.2 9.72 1.2C9.64 1.17333 9.54667 1.16 9.44 1.16C8.85333 1.16 8.29333 1.22667 7.76 1.36C7.22667 1.49333 6.68 1.58667 6.12 1.64C5.98667 5.93333 5.90667 8.49333 5.88 9.32L5.76 9.48C5.76 9.69333 5.76 9.90667 5.76 10.12C5.78667 10.3067 5.8 10.5067 5.8 10.72C5.8 11.4933 5.77333 12.2667 5.72 13.04C5.69333 13.8133 5.68 14.6 5.68 15.4C5.68 16.2533 5.68 16.9733 5.68 17.56C5.70667 18.1467 5.74667 18.4933 5.8 18.6C5.85333 20.2 5.86667 21.88 5.84 23.64C5.84 25.3733 5.90667 26.9733 6.04 28.44C6.33333 28.4933 6.65333 28.5333 7 28.56C7.37333 28.5867 7.76 28.6 8.16 28.6C8.96 28.6 9.72 28.52 10.44 28.36C10.44 28.28 10.4133 28.2133 10.36 28.16C10.3333 28.1067 10.32 28.0533 10.32 28C10.3467 27.92 10.3867 27.88 10.44 27.88L10.64 26.72C10.7467 26.1067 10.8 25.4933 10.8 24.88C10.8 24.2667 10.8 23.6533 10.8 23.04C10.8 22.1067 10.7867 21.16 10.76 20.2C10.7333 19.2133 10.72 18.08 10.72 16.8L10.64 16.68C10.6667 16.52 10.68 16.3467 10.68 16.16C10.68 15.9733 10.6933 15.8 10.72 15.64C10.7733 15.4533 10.84 15.3067 10.92 15.2C11 15.0667 11.1333 15 11.32 15C11.3467 15 11.3733 15.0133 11.4 15.04C11.4267 15.04 11.4533 15.04 11.48 15.04C11.5333 15.4667 11.64 15.8533 11.8 16.2C11.9867 16.52 12.1733 16.84 12.36 17.16C12.5733 17.48 12.7733 17.8133 12.96 18.16C13.1733 18.48 13.3333 18.84 13.44 19.24C13.4933 19.3733 13.56 19.48 13.64 19.56C13.72 19.6133 13.76 19.68 13.76 19.76C13.76 19.84 13.7467 19.8933 13.72 19.92L13.92 20.44C14.0533 20.52 14.0933 20.6267 14.04 20.76C14.0133 20.8667 14.0667 20.9467 14.2 21C14.4667 21.7733 14.7067 22.44 14.92 23C15.1333 23.56 15.3467 24.1067 15.56 24.64C15.7733 25.1467 16 25.6933 16.24 26.28C16.48 26.84 16.7467 27.5067 17.04 28.28C17.4133 28.28 17.7733 28.3067 18.12 28.36C18.4667 28.3867 18.8267 28.4 19.2 28.4C19.5733 28.4 19.92 28.36 20.24 28.28C20.32 28.36 20.4533 28.4 20.64 28.4C20.7733 28.4 20.9067 28.3867 21.04 28.36C21.1733 28.3333 21.3067 28.32 21.44 28.32ZM14 22.56C14.0533 22.6667 14.0933 22.76 14.12 22.84L14 22.56ZM40.5619 15.96C40.5885 16.5467 40.6285 17.1467 40.6819 17.76C40.7352 18.32 40.7752 18.8667 40.8019 19.4C40.8285 19.9333 40.8419 20.4667 40.8419 21C40.8419 21.6133 40.8019 22.2133 40.7219 22.8C40.6685 23.3867 40.5485 23.96 40.3619 24.52C40.2285 24.92 40.0819 25.3467 39.9219 25.8C39.7885 26.2533 39.6285 26.6933 39.4419 27.12C39.2552 27.52 39.0152 27.8933 38.7219 28.24C38.4552 28.56 38.1219 28.8 37.7219 28.96C37.3485 29.0933 36.9085 29.1733 36.4019 29.2C35.9219 29.2533 35.4152 29.28 34.8819 29.28C34.5885 29.28 34.2952 29.2667 34.0019 29.24C33.7085 29.24 33.4419 29.24 33.2019 29.24C32.8819 29.24 32.4552 29.2267 31.9219 29.2C31.3885 29.2 30.8419 29.1733 30.2819 29.12C29.7219 29.0667 29.1752 28.9867 28.6419 28.88C28.1352 28.7733 27.7219 28.6133 27.4019 28.4C26.9485 28.1067 26.5352 27.68 26.1619 27.12C25.8152 26.56 25.5219 25.92 25.2819 25.2C25.0419 24.48 24.8552 23.7067 24.7219 22.88C24.5885 22.0533 24.5219 21.2267 24.5219 20.4C24.5219 19.1733 24.6152 17.9867 24.8019 16.84C25.0152 15.6667 25.1219 14.5067 25.1219 13.36C25.1219 13.2267 25.1085 13.0933 25.0819 12.96C25.0552 12.8 25.0419 12.6133 25.0419 12.4C25.0419 11.5733 25.1885 10.9067 25.4819 10.4C25.7752 9.86667 26.1352 9.46667 26.5619 9.2C26.9885 8.90667 27.4419 8.70666 27.9219 8.6C28.4019 8.46666 28.8419 8.37333 29.2419 8.32C29.6419 8.26666 30.0419 8.22666 30.4419 8.2C30.8419 8.14667 31.2685 8.12 31.7219 8.12C32.3619 8.12 33.0685 8.17333 33.8419 8.28C34.6419 8.38667 35.4019 8.53333 36.1219 8.72C36.8419 8.88 37.4819 9.06667 38.0419 9.28C38.6019 9.49333 39.0019 9.72 39.2419 9.96C39.3752 10.0667 39.4552 10.2267 39.4819 10.44C39.5352 10.6533 39.6552 10.76 39.8419 10.76C39.9219 10.8133 39.9619 10.8933 39.9619 11V11.24C39.9619 11.7467 40.0285 12.24 40.1619 12.72C40.3219 13.2 40.4285 13.7067 40.4819 14.24C40.5352 14.7733 40.5619 15.3467 40.5619 15.96ZM32.3619 28.68C33.4552 28.68 34.8152 28.4667 36.4419 28.04C37.3219 27.6933 38.0019 27.2933 38.4819 26.84C38.9885 26.36 39.3485 25.68 39.5619 24.8C39.7752 23.8933 39.8952 22.7067 39.9219 21.24C39.9752 19.7467 40.0019 17.8 40.0019 15.4C40.0019 14.8133 39.9619 14.2133 39.8819 13.6C39.8285 12.9867 39.7085 12.4267 39.5219 11.92C39.3619 11.3867 39.1485 10.9333 38.8819 10.56C38.6152 10.16 38.2819 9.88 37.8819 9.72C37.7485 9.66667 37.5885 9.64 37.4019 9.64C37.2419 9.64 37.0552 9.61333 36.8419 9.56C36.4685 9.45333 36.1219 9.30667 35.8019 9.12C35.5085 8.90667 35.2019 8.8 34.8819 8.8C34.7485 8.8 34.6285 8.81333 34.5219 8.84C34.4419 8.84 34.3352 8.85333 34.2019 8.88C33.5619 8.93333 32.8819 8.96 32.1619 8.96C31.4419 8.96 30.7352 8.97333 30.0419 9C29.3752 9.02667 28.7619 9.08 28.2019 9.16C27.6685 9.24 27.2685 9.37333 27.0019 9.56C26.8419 9.69333 26.6952 9.96 26.5619 10.36C26.4552 10.7333 26.3352 11.0533 26.2019 11.32C26.0152 11.8 25.8685 12.2267 25.7619 12.6C25.6552 12.9467 25.5619 13.28 25.4819 13.6C25.4285 13.8933 25.3885 14.2 25.3619 14.52C25.3352 14.8133 25.3219 15.1467 25.3219 15.52V20.32C25.3219 21.7867 25.3619 22.88 25.4419 23.6C25.5219 24.2933 25.6152 24.8133 25.7219 25.16C25.8552 25.48 26.0019 25.72 26.1619 25.88C26.3485 26.04 26.5352 26.3067 26.7219 26.68C26.8819 26.92 27.1885 27.16 27.6419 27.4C28.0952 27.6133 28.6019 27.8267 29.1619 28.04C29.7219 28.2267 30.2952 28.3867 30.8819 28.52C31.4685 28.6267 31.9619 28.68 32.3619 28.68ZM35.5619 15.8C35.7752 16.1733 35.9085 16.5333 35.9619 16.88C35.9885 17.04 36.0019 17.2 36.0019 17.36C36.0285 17.4933 36.0419 17.64 36.0419 17.8C36.0419 17.88 36.0285 18.1333 36.0019 18.56C36.0019 18.96 35.9885 19.4 35.9619 19.88C35.9352 20.36 35.9085 20.8267 35.8819 21.28C35.8819 21.7067 35.8819 22 35.8819 22.16C35.8285 22.7733 35.6419 23.2533 35.3219 23.6C35.0285 23.9467 34.4685 24.12 33.6419 24.12C32.8685 24.12 32.2152 24.08 31.6819 24C31.1752 23.8933 30.7752 23.7333 30.4819 23.52C30.1885 23.3067 29.9752 23.04 29.8419 22.72C29.7352 22.3733 29.6819 21.96 29.6819 21.48C29.6819 20.9467 29.7219 20.4133 29.8019 19.88C29.8819 19.32 29.9485 18.8 30.0019 18.32C30.0019 18.08 29.9752 17.84 29.9219 17.6C29.8685 17.36 29.8419 17.1467 29.8419 16.96C29.8952 16.6667 29.9752 16.3867 30.0819 16.12C30.2152 15.8533 30.2819 15.5733 30.2819 15.28V15.04C30.6552 14.7733 31.0685 14.4533 31.5219 14.08C31.9752 13.68 32.4685 13.48 33.0019 13.48C33.3219 13.48 33.6419 13.6 33.9619 13.84C34.2819 14.0533 34.5752 14.3333 34.8419 14.68C35.1352 15.0267 35.3752 15.4 35.5619 15.8ZM30.2019 21.16C30.2552 21.5067 30.3485 21.8133 30.4819 22.08C30.6152 22.4533 30.9085 22.7733 31.3619 23.04C31.8419 23.28 32.3352 23.4 32.8419 23.4C33.2419 23.4 33.5619 23.3333 33.8019 23.2C34.0419 23.04 34.2285 22.84 34.3619 22.6C34.4952 22.3333 34.6019 22.0267 34.6819 21.68C34.7885 21.3333 34.8952 20.96 35.0019 20.56C35.0552 20.2933 35.1085 20.0267 35.1619 19.76C35.2419 19.4667 35.2819 19.08 35.2819 18.6C35.2819 17.8267 35.2419 17.1867 35.1619 16.68C35.0819 16.1733 34.9485 15.7733 34.7619 15.48C34.5752 15.16 34.3219 14.9333 34.0019 14.8C33.6819 14.6667 33.2952 14.5733 32.8419 14.52C32.1752 14.52 31.6552 14.68 31.2819 15C30.9352 15.2933 30.6685 15.6933 30.4819 16.2C30.3219 16.7067 30.2285 17.2933 30.2019 17.96C30.1752 18.6267 30.1619 19.3067 30.1619 20C30.1619 20.4 30.1752 20.7867 30.2019 21.16ZM48.4116 29.68C48.3849 29.7067 48.2916 29.72 48.1316 29.72L43.7716 29.36C43.6382 29.3867 43.5449 29.4667 43.4916 29.6C43.4649 29.7333 43.3982 29.8 43.2916 29.8C43.1049 29.8 42.9849 29.7333 42.9316 29.6C42.8782 29.4933 42.8382 29.36 42.8116 29.2C42.8116 29.0667 42.7982 28.9333 42.7716 28.8C42.7449 28.6667 42.6649 28.5867 42.5316 28.56C42.5316 28.4533 42.5582 28.3867 42.6116 28.36C42.6916 28.3333 42.7316 28.2533 42.7316 28.12C42.6516 27.3467 42.5982 26.56 42.5716 25.76C42.5449 24.96 42.5316 24.1467 42.5316 23.32C42.5316 21.72 42.5716 20.1467 42.6516 18.6C42.7316 17.0267 42.7982 15.48 42.8516 13.96C42.8782 13.32 42.9182 12.7067 42.9716 12.12C43.0516 11.5067 43.0916 10.9333 43.0916 10.4C43.0649 10.2667 43.0382 10.1333 43.0116 10C43.0116 9.86667 43.0116 9.74667 43.0116 9.64C43.0116 9.48 43.0382 9.33333 43.0916 9.2C43.1449 9.06667 43.2649 8.93333 43.4516 8.8C43.7182 8.85333 43.9716 8.90667 44.2116 8.96C44.4782 8.98667 44.7582 9 45.0516 9C45.6116 9 46.1582 8.94667 46.6916 8.84C47.2516 8.73333 47.7849 8.68 48.2916 8.68C48.4249 8.68 48.5449 8.69333 48.6516 8.72C48.7849 8.72 48.9182 8.73333 49.0516 8.76C48.9182 9.05333 48.8249 9.41333 48.7716 9.84C48.7449 10.2667 48.7049 10.5733 48.6516 10.76V10.88C48.8382 10.88 48.9716 10.8267 49.0516 10.72C49.1582 10.5867 49.2782 10.48 49.4116 10.4C49.6249 10.2667 49.8649 10.16 50.1316 10.08C50.4249 10 50.7049 9.89333 50.9716 9.76C51.2649 9.62667 51.5449 9.48 51.8116 9.32C52.0782 9.16 52.3716 9.08 52.6916 9.08C52.8249 9.08 52.9716 9.10667 53.1316 9.16C53.2916 9.18667 53.4782 9.2 53.6916 9.2C53.9582 9.2 54.2249 9.18667 54.4916 9.16C54.7582 9.13333 55.0249 9.12 55.2916 9.12C56.1982 9.12 56.9182 9.41333 57.4516 10C57.9849 10.5867 58.3849 11.32 58.6516 12.2C58.9182 13.08 59.0782 14.04 59.1316 15.08C59.2116 16.12 59.2516 17.0933 59.2516 18C59.2516 19.2 59.1849 20.4667 59.0516 21.8C58.9449 23.1067 58.8649 24.32 58.8116 25.44V26.16C58.8116 26.8267 58.7582 27.4533 58.6516 28.04C58.5449 28.6267 58.4382 29.1733 58.3316 29.68C58.0916 29.5467 57.8382 29.4533 57.5716 29.4C57.3316 29.3733 57.0916 29.36 56.8516 29.36C56.3449 29.36 55.8382 29.4133 55.3316 29.52C54.8249 29.6267 54.3049 29.68 53.7716 29.68H53.4916C53.3582 29.68 53.2782 29.6667 53.2516 29.64C53.3582 29.24 53.4116 28.64 53.4116 27.84C53.4116 27.0667 53.3582 26.28 53.2516 25.48C53.1449 24.68 53.0649 23.84 53.0116 22.96C52.9582 22.2133 52.9316 21.4133 52.9316 20.56C52.9582 19.7067 52.9316 18.9333 52.8516 18.24C52.7982 17.5467 52.6649 16.9733 52.4516 16.52C52.2649 16.04 51.9316 15.8 51.4516 15.8C50.8116 15.8 50.3049 15.9467 49.9316 16.24C49.5582 16.5067 49.2782 16.8933 49.0916 17.4C48.9049 17.88 48.7849 18.44 48.7316 19.08C48.6782 19.72 48.6516 20.4 48.6516 21.12C48.6516 21.4133 48.6516 21.6933 48.6516 21.96C48.6782 22.2267 48.6916 22.4933 48.6916 22.76C48.6916 23.7733 48.6249 24.7867 48.4916 25.8C48.3849 26.8133 48.3316 27.76 48.3316 28.64C48.3316 28.8267 48.3316 29 48.3316 29.16C48.3582 29.3467 48.3849 29.52 48.4116 29.68ZM58.3316 26.72C58.4382 25.8933 58.5182 25.0667 58.5716 24.24C58.5982 24.1067 58.6116 23.9867 58.6116 23.88C58.6116 23.7733 58.6116 23.6533 58.6116 23.52V22.8C58.6116 20.88 58.5449 19.1333 58.4116 17.56C58.2782 15.96 58.0249 14.5867 57.6516 13.44C57.3049 12.2933 56.8249 11.4 56.2116 10.76C55.6249 10.12 54.8649 9.8 53.9316 9.8C53.1316 9.8 52.4382 9.85333 51.8516 9.96C51.2916 10.0667 50.8116 10.2 50.4116 10.36C50.0116 10.52 49.6782 10.7067 49.4116 10.92C49.1449 11.1067 48.9316 11.28 48.7716 11.44C48.7716 11.4933 48.7849 11.5333 48.8116 11.56C48.8382 11.5867 48.8516 11.6267 48.8516 11.68C48.8249 11.7067 48.8116 11.7333 48.8116 11.76C48.7582 11.76 48.7182 11.76 48.6916 11.76C48.6649 11.7333 48.6382 11.72 48.6116 11.72C48.5849 11.72 48.5716 11.7067 48.5716 11.68C48.4916 11.68 48.4116 11.7067 48.3316 11.76C48.2782 11.7867 48.2249 11.8 48.1716 11.8C48.1449 11.8 48.1182 11.7867 48.0916 11.76C48.1182 11.5733 48.1582 11.32 48.2116 11C48.2916 10.6533 48.3316 10.3333 48.3316 10.04C48.3316 9.98667 48.3182 9.93333 48.2916 9.88C48.2916 9.8 48.2916 9.73333 48.2916 9.68C47.5716 9.68 46.8782 9.65333 46.2116 9.6C45.5449 9.54667 44.8649 9.52 44.1716 9.52C43.9049 9.52 43.7449 9.61333 43.6916 9.8C43.6649 9.96 43.6516 10.12 43.6516 10.28C43.6782 10.3067 43.6916 10.3333 43.6916 10.36C43.6916 10.4133 43.7049 10.4667 43.7316 10.52C43.7849 10.4667 43.7982 10.4 43.7716 10.32C43.7716 10.24 43.8382 10.2 43.9716 10.2C43.7582 10.7333 43.6249 11.2533 43.5716 11.76C43.5182 12.2667 43.4916 12.7867 43.4916 13.32C43.4916 14.1467 43.5182 14.9733 43.5716 15.8C43.6249 16.6 43.6516 17.4133 43.6516 18.24C43.6516 18.5867 43.6382 18.9333 43.6116 19.28C43.6116 19.6267 43.6116 19.9867 43.6116 20.36C43.6116 20.8133 43.6116 21.2533 43.6116 21.68C43.6382 22.08 43.6516 22.48 43.6516 22.88C43.6516 23.8667 43.5849 24.8133 43.4516 25.72C43.3449 26.6 43.2916 27.5067 43.2916 28.44C44.1449 28.44 44.9049 28.56 45.5716 28.8C46.2649 29.0133 46.9849 29.12 47.7316 29.12C47.9716 29.12 48.0916 29.04 48.0916 28.88C48.1182 28.6933 48.1316 28.4933 48.1316 28.28C48.1316 27.9867 48.0916 27.4133 48.0116 26.56C47.9316 25.7067 47.8916 24.8267 47.8916 23.92C47.8916 22.9867 47.9449 22.0933 48.0516 21.24C48.1582 20.36 48.3049 19.4533 48.4916 18.52C48.5449 18.2267 48.5982 17.92 48.6516 17.6C48.7049 17.28 48.7716 17.0267 48.8516 16.84C48.9316 16.6533 49.0649 16.4667 49.2516 16.28C49.4382 16.0667 49.6382 15.88 49.8516 15.72C50.0649 15.5333 50.2916 15.3867 50.5316 15.28C50.7716 15.1733 50.9849 15.12 51.1716 15.12C51.7049 15.12 52.1316 15.3067 52.4516 15.68C52.7982 16.0267 53.0649 16.5067 53.2516 17.12C53.4649 17.7067 53.6116 18.3733 53.6916 19.12C53.7716 19.8667 53.8249 20.64 53.8516 21.44C53.9049 22.24 53.9316 23.0267 53.9316 23.8C53.9582 24.5733 53.9982 25.2667 54.0516 25.88C54.0782 26.12 54.0916 26.36 54.0916 26.6C54.1182 26.8133 54.1316 27.04 54.1316 27.28V28.76C54.1316 28.8667 54.0782 28.92 53.9716 28.92C53.8916 28.92 53.8516 28.9867 53.8516 29.12C54.1982 29.0667 54.5716 29.0267 54.9716 29C55.3716 28.9733 55.7849 28.96 56.2116 28.96C57.0382 28.96 57.6782 29.0533 58.1316 29.24C58.1849 28.3867 58.2516 27.5467 58.3316 26.72ZM71.8594 23.2C72.1527 23.36 72.486 23.4667 72.8594 23.52C72.886 23.5467 73.0594 23.56 73.3794 23.56C73.8594 23.56 74.326 23.5067 74.7794 23.4C74.8327 23.7733 74.8727 24.12 74.8994 24.44C74.9527 24.7333 74.9794 24.9867 74.9794 25.2C74.9794 25.92 74.926 26.6533 74.8194 27.4C74.7127 28.1467 74.6194 28.8267 74.5394 29.44C74.2994 29.5467 73.8727 29.6 73.2594 29.6C72.966 29.6 72.486 29.5467 71.8194 29.44C71.1527 29.3333 70.3127 29.1333 69.2994 28.84C68.3127 28.6267 67.3794 28.4267 66.4994 28.24C65.646 28.0533 64.966 27.6667 64.4594 27.08C63.766 26.28 63.326 25.28 63.1394 24.08C62.9527 22.8533 62.8594 21.56 62.8594 20.2C62.8594 19.3733 62.8727 18.56 62.8994 17.76C62.926 16.96 62.9394 16.1867 62.9394 15.44V14.6C62.726 14.4133 62.3927 14.32 61.9394 14.32C61.486 14.32 61.086 14.2933 60.7394 14.24C60.606 14.2667 60.5394 14.3467 60.5394 14.48C60.5394 14.5867 60.4994 14.64 60.4194 14.64C60.3394 14.64 60.286 14.6 60.2594 14.52C60.2594 14.4133 60.246 14.3067 60.2194 14.2C60.2194 14.0933 60.206 13.9867 60.1794 13.88C60.1527 13.7733 60.0994 13.7067 60.0194 13.68C60.206 13.3067 60.326 12.9067 60.3794 12.48C60.4594 12.0267 60.4994 11.5733 60.4994 11.12C60.4994 10.72 60.486 10.3467 60.4594 10C60.4327 9.65333 60.406 9.36 60.3794 9.12C60.4327 9.12 60.4594 9.13333 60.4594 9.16C60.4594 9.16 60.4727 9.16 60.4994 9.16C60.5527 9.16 60.5927 9.13333 60.6194 9.08C60.6727 9.02667 60.7394 9 60.8194 9C60.926 9 60.9927 9.06667 61.0194 9.2C61.046 9.30667 61.206 9.36 61.4994 9.36H62.9794C63.2194 9.36 63.3527 9.37333 63.3794 9.4C63.4594 9 63.4994 8.14667 63.4994 6.84C63.4994 5.53333 63.4594 3.77333 63.3794 1.56C63.5927 1.50667 63.806 1.48 64.0194 1.48C64.4194 1.48 64.926 1.50667 65.5394 1.56C66.1794 1.61333 66.8194 1.65333 67.4594 1.68C67.6994 1.68 67.846 1.66667 67.8994 1.64C67.9527 1.61333 68.0727 1.50666 68.2594 1.32C68.3394 1.45333 68.4594 1.53333 68.6194 1.56C68.7794 1.56 68.926 1.56 69.0594 1.56C69.0327 2.49333 69.006 3.34667 68.9794 4.12C68.9794 4.86667 68.9794 5.54667 68.9794 6.16C68.9794 6.77333 68.9794 7.32 68.9794 7.8C69.006 8.28 69.0327 8.69333 69.0594 9.04H69.3794C69.6994 9.04 70.126 9.06667 70.6594 9.12C71.2194 9.14667 71.806 9.16 72.4194 9.16C72.8194 9.16 73.1927 9.10667 73.5394 9C73.9127 8.89333 74.246 8.84 74.5394 8.84C74.7527 8.84 74.9127 8.89333 75.0194 9C74.9927 9.08 74.966 9.16 74.9394 9.24C74.9394 9.32 74.926 9.53333 74.8994 9.88C74.8994 10.2 74.886 10.7067 74.8594 11.4C74.8327 12.0933 74.7794 13.08 74.6994 14.36C73.8194 14.3333 72.8594 14.2933 71.8194 14.24C70.7794 14.1867 69.8594 14.16 69.0594 14.16C68.846 14.16 68.686 14.1867 68.5794 14.24C68.4994 15.04 68.4594 15.8533 68.4594 16.68C68.4594 17.6133 68.486 18.56 68.5394 19.52C68.5927 20.4533 68.6194 21.3467 68.6194 22.2C68.8327 22.2 69.0194 22.24 69.1794 22.32C69.3394 22.4 69.486 22.48 69.6194 22.56C69.7794 22.64 69.9394 22.72 70.0994 22.8C70.2594 22.88 70.4594 22.92 70.6994 22.92C71.1794 22.92 71.566 23.0133 71.8594 23.2ZM70.4994 28.44C71.6194 28.6 72.686 28.8133 73.6994 29.08C73.966 28.8667 74.126 28.5733 74.1794 28.2C74.2594 27.8 74.2994 27.3733 74.2994 26.92C74.2994 26.6267 74.286 26.3333 74.2594 26.04C74.2594 25.7467 74.2594 25.4533 74.2594 25.16V24.84C74.2594 24.6267 74.2727 24.5067 74.2994 24.48C74.2727 24.5067 74.1527 24.52 73.9394 24.52H73.5794C72.9927 24.52 72.486 24.4533 72.0594 24.32C71.6594 24.16 71.2194 23.9733 70.7394 23.76C70.1794 23.52 69.6727 23.32 69.2194 23.16C68.766 22.9733 68.406 22.6667 68.1394 22.24V22.32C68.1394 22.4 68.086 22.44 67.9794 22.44C67.926 22.44 67.886 22.4267 67.8594 22.4C67.8594 22.3733 67.846 22.3067 67.8194 22.2C67.8194 22.0667 67.8194 21.88 67.8194 21.64C67.8194 21.3733 67.8194 21.0133 67.8194 20.56C67.8194 19.5733 67.8327 18.5733 67.8594 17.56C67.886 16.5467 67.926 15.5333 67.9794 14.52C67.9527 14.3867 67.8727 14.32 67.7394 14.32C67.6327 14.32 67.5794 14.2533 67.5794 14.12L67.6194 14C67.646 14 67.766 13.9867 67.9794 13.96C68.2194 13.9067 68.486 13.8533 68.7794 13.8C69.0994 13.72 69.4194 13.6667 69.7394 13.64C70.086 13.5867 70.366 13.56 70.5794 13.56C71.1127 13.56 71.726 13.52 72.4194 13.44C73.1394 13.3333 73.8194 13.28 74.4594 13.28C74.406 12.8267 74.366 12.3867 74.3394 11.96C74.3127 11.5333 74.2994 11.08 74.2994 10.6C74.2994 10.2267 74.3527 9.94667 74.4594 9.76C74.5927 9.57333 74.6594 9.45333 74.6594 9.4C74.446 9.50667 74.246 9.57333 74.0594 9.6C73.8727 9.62667 73.6727 9.64 73.4594 9.64C73.1394 9.61333 72.766 9.6 72.3394 9.6C71.9394 9.57333 71.4994 9.56 71.0194 9.56C70.566 9.56 70.0994 9.57333 69.6194 9.6C69.1394 9.62667 68.6327 9.66667 68.0994 9.72C68.0994 9.50667 68.0994 9.2 68.0994 8.8C68.126 8.4 68.1394 7.90666 68.1394 7.32C68.1394 5.85333 68.0994 4.13333 68.0194 2.16C67.5927 2.10667 67.166 2.05333 66.7394 2C66.3394 1.94667 65.9527 1.92 65.5794 1.92C65.046 1.92 64.5394 2 64.0594 2.16C63.9794 5.65333 63.9394 7.77333 63.9394 8.52C63.9394 8.62667 63.9394 8.73333 63.9394 8.84C63.966 8.92 63.9794 9.01333 63.9794 9.12C63.8194 9.17333 63.7394 9.29333 63.7394 9.48C63.7394 9.66667 63.686 9.8 63.5794 9.88C62.9127 9.82667 62.366 9.78667 61.9394 9.76C61.5127 9.70667 61.1927 9.65333 60.9794 9.6C60.9794 10.24 60.966 10.8667 60.9394 11.48C60.9127 12.0933 60.8594 12.6933 60.7794 13.28C61.2327 13.28 62.126 13.4 63.4594 13.64V13.8C63.4594 14.0133 63.5394 14.2133 63.6994 14.4C63.6727 14.5067 63.6194 14.5733 63.5394 14.6C63.486 14.6267 63.4594 14.7067 63.4594 14.84C63.486 15.2133 63.486 15.56 63.4594 15.88C63.4594 16.2 63.4727 16.5333 63.4994 16.88C63.5527 18.16 63.686 19.4267 63.8994 20.68C64.1394 21.9067 64.2594 23.08 64.2594 24.2V24.84C64.2594 25.6933 64.5527 26.3467 65.1394 26.8C65.7527 27.2267 66.526 27.5733 67.4594 27.84C68.3927 28.08 69.406 28.28 70.4994 28.44ZM71.8194 28.96C71.686 28.96 71.6194 28.9733 71.6194 29C71.726 29 71.7927 28.9867 71.8194 28.96ZM91.9681 15.96C91.9948 16.5467 92.0348 17.1467 92.0881 17.76C92.1415 18.32 92.1815 18.8667 92.2081 19.4C92.2348 19.9333 92.2481 20.4667 92.2481 21C92.2481 21.6133 92.2081 22.2133 92.1281 22.8C92.0748 23.3867 91.9548 23.96 91.7681 24.52C91.6348 24.92 91.4881 25.3467 91.3281 25.8C91.1948 26.2533 91.0348 26.6933 90.8481 27.12C90.6615 27.52 90.4215 27.8933 90.1281 28.24C89.8615 28.56 89.5281 28.8 89.1281 28.96C88.7548 29.0933 88.3148 29.1733 87.8081 29.2C87.3281 29.2533 86.8215 29.28 86.2881 29.28C85.9948 29.28 85.7015 29.2667 85.4081 29.24C85.1148 29.24 84.8481 29.24 84.6081 29.24C84.2881 29.24 83.8615 29.2267 83.3281 29.2C82.7948 29.2 82.2481 29.1733 81.6881 29.12C81.1281 29.0667 80.5815 28.9867 80.0481 28.88C79.5415 28.7733 79.1281 28.6133 78.8081 28.4C78.3548 28.1067 77.9415 27.68 77.5681 27.12C77.2215 26.56 76.9281 25.92 76.6881 25.2C76.4481 24.48 76.2615 23.7067 76.1281 22.88C75.9948 22.0533 75.9281 21.2267 75.9281 20.4C75.9281 19.1733 76.0215 17.9867 76.2081 16.84C76.4215 15.6667 76.5281 14.5067 76.5281 13.36C76.5281 13.2267 76.5148 13.0933 76.4881 12.96C76.4615 12.8 76.4481 12.6133 76.4481 12.4C76.4481 11.5733 76.5948 10.9067 76.8881 10.4C77.1815 9.86667 77.5415 9.46667 77.9681 9.2C78.3948 8.90667 78.8481 8.70666 79.3281 8.6C79.8081 8.46666 80.2481 8.37333 80.6481 8.32C81.0481 8.26666 81.4481 8.22666 81.8481 8.2C82.2481 8.14667 82.6748 8.12 83.1281 8.12C83.7681 8.12 84.4748 8.17333 85.2481 8.28C86.0481 8.38667 86.8081 8.53333 87.5281 8.72C88.2481 8.88 88.8881 9.06667 89.4481 9.28C90.0081 9.49333 90.4081 9.72 90.6481 9.96C90.7815 10.0667 90.8615 10.2267 90.8881 10.44C90.9415 10.6533 91.0615 10.76 91.2481 10.76C91.3281 10.8133 91.3681 10.8933 91.3681 11V11.24C91.3681 11.7467 91.4348 12.24 91.5681 12.72C91.7281 13.2 91.8348 13.7067 91.8881 14.24C91.9415 14.7733 91.9681 15.3467 91.9681 15.96ZM83.7681 28.68C84.8615 28.68 86.2215 28.4667 87.8481 28.04C88.7281 27.6933 89.4081 27.2933 89.8881 26.84C90.3948 26.36 90.7548 25.68 90.9681 24.8C91.1815 23.8933 91.3015 22.7067 91.3281 21.24C91.3815 19.7467 91.4081 17.8 91.4081 15.4C91.4081 14.8133 91.3681 14.2133 91.2881 13.6C91.2348 12.9867 91.1148 12.4267 90.9281 11.92C90.7681 11.3867 90.5548 10.9333 90.2881 10.56C90.0215 10.16 89.6881 9.88 89.2881 9.72C89.1548 9.66667 88.9948 9.64 88.8081 9.64C88.6481 9.64 88.4615 9.61333 88.2481 9.56C87.8748 9.45333 87.5281 9.30667 87.2081 9.12C86.9148 8.90667 86.6081 8.8 86.2881 8.8C86.1548 8.8 86.0348 8.81333 85.9281 8.84C85.8481 8.84 85.7415 8.85333 85.6081 8.88C84.9681 8.93333 84.2881 8.96 83.5681 8.96C82.8481 8.96 82.1415 8.97333 81.4481 9C80.7815 9.02667 80.1681 9.08 79.6081 9.16C79.0748 9.24 78.6748 9.37333 78.4081 9.56C78.2481 9.69333 78.1015 9.96 77.9681 10.36C77.8615 10.7333 77.7415 11.0533 77.6081 11.32C77.4215 11.8 77.2748 12.2267 77.1681 12.6C77.0615 12.9467 76.9681 13.28 76.8881 13.6C76.8348 13.8933 76.7948 14.2 76.7681 14.52C76.7415 14.8133 76.7281 15.1467 76.7281 15.52V20.32C76.7281 21.7867 76.7681 22.88 76.8481 23.6C76.9281 24.2933 77.0215 24.8133 77.1281 25.16C77.2615 25.48 77.4081 25.72 77.5681 25.88C77.7548 26.04 77.9415 26.3067 78.1281 26.68C78.2881 26.92 78.5948 27.16 79.0481 27.4C79.5015 27.6133 80.0081 27.8267 80.5681 28.04C81.1281 28.2267 81.7015 28.3867 82.2881 28.52C82.8748 28.6267 83.3681 28.68 83.7681 28.68ZM86.9681 15.8C87.1815 16.1733 87.3148 16.5333 87.3681 16.88C87.3948 17.04 87.4081 17.2 87.4081 17.36C87.4348 17.4933 87.4481 17.64 87.4481 17.8C87.4481 17.88 87.4348 18.1333 87.4081 18.56C87.4081 18.96 87.3948 19.4 87.3681 19.88C87.3415 20.36 87.3148 20.8267 87.2881 21.28C87.2881 21.7067 87.2881 22 87.2881 22.16C87.2348 22.7733 87.0481 23.2533 86.7281 23.6C86.4348 23.9467 85.8748 24.12 85.0481 24.12C84.2748 24.12 83.6215 24.08 83.0881 24C82.5815 23.8933 82.1815 23.7333 81.8881 23.52C81.5948 23.3067 81.3815 23.04 81.2481 22.72C81.1415 22.3733 81.0881 21.96 81.0881 21.48C81.0881 20.9467 81.1281 20.4133 81.2081 19.88C81.2881 19.32 81.3548 18.8 81.4081 18.32C81.4081 18.08 81.3815 17.84 81.3281 17.6C81.2748 17.36 81.2481 17.1467 81.2481 16.96C81.3015 16.6667 81.3815 16.3867 81.4881 16.12C81.6215 15.8533 81.6881 15.5733 81.6881 15.28V15.04C82.0615 14.7733 82.4748 14.4533 82.9281 14.08C83.3815 13.68 83.8748 13.48 84.4081 13.48C84.7281 13.48 85.0481 13.6 85.3681 13.84C85.6881 14.0533 85.9815 14.3333 86.2481 14.68C86.5415 15.0267 86.7815 15.4 86.9681 15.8ZM81.6081 21.16C81.6615 21.5067 81.7548 21.8133 81.8881 22.08C82.0215 22.4533 82.3148 22.7733 82.7681 23.04C83.2481 23.28 83.7415 23.4 84.2481 23.4C84.6481 23.4 84.9681 23.3333 85.2081 23.2C85.4481 23.04 85.6348 22.84 85.7681 22.6C85.9015 22.3333 86.0081 22.0267 86.0881 21.68C86.1948 21.3333 86.3015 20.96 86.4081 20.56C86.4615 20.2933 86.5148 20.0267 86.5681 19.76C86.6481 19.4667 86.6881 19.08 86.6881 18.6C86.6881 17.8267 86.6481 17.1867 86.5681 16.68C86.4881 16.1733 86.3548 15.7733 86.1681 15.48C85.9815 15.16 85.7281 14.9333 85.4081 14.8C85.0881 14.6667 84.7015 14.5733 84.2481 14.52C83.5815 14.52 83.0615 14.68 82.6881 15C82.3415 15.2933 82.0748 15.6933 81.8881 16.2C81.7281 16.7067 81.6348 17.2933 81.6081 17.96C81.5815 18.6267 81.5681 19.3067 81.5681 20C81.5681 20.4 81.5815 20.7867 81.6081 21.16ZM99.8178 29.68C99.7911 29.7067 99.6978 29.72 99.5378 29.72L95.1778 29.36C95.0445 29.3867 94.9511 29.4667 94.8978 29.6C94.8711 29.7333 94.8045 29.8 94.6978 29.8C94.5111 29.8 94.3911 29.7333 94.3378 29.6C94.2845 29.4933 94.2445 29.36 94.2178 29.2C94.2178 29.0667 94.2045 28.9333 94.1778 28.8C94.1511 28.6667 94.0711 28.5867 93.9378 28.56C93.9378 28.4533 93.9645 28.3867 94.0178 28.36C94.0978 28.3333 94.1378 28.2533 94.1378 28.12C94.0578 27.3467 94.0045 26.56 93.9778 25.76C93.9511 24.96 93.9378 24.1467 93.9378 23.32C93.9378 21.72 93.9778 20.1467 94.0578 18.6C94.1378 17.0267 94.2045 15.48 94.2578 13.96C94.2845 13.32 94.3245 12.7067 94.3778 12.12C94.4578 11.5067 94.4978 10.9333 94.4978 10.4C94.4711 10.2667 94.4445 10.1333 94.4178 10C94.4178 9.86667 94.4178 9.74667 94.4178 9.64C94.4178 9.48 94.4445 9.33333 94.4978 9.2C94.5511 9.06667 94.6711 8.93333 94.8578 8.8C95.1245 8.85333 95.3778 8.90667 95.6178 8.96C95.8845 8.98667 96.1645 9 96.4578 9C97.0178 9 97.5645 8.94667 98.0978 8.84C98.6578 8.73333 99.1911 8.68 99.6978 8.68C99.8311 8.68 99.9511 8.69333 100.058 8.72C100.191 8.72 100.324 8.73333 100.458 8.76C100.324 9.05333 100.231 9.41333 100.178 9.84C100.151 10.2667 100.111 10.5733 100.058 10.76V10.88C100.244 10.88 100.378 10.8267 100.458 10.72C100.564 10.5867 100.684 10.48 100.818 10.4C101.031 10.2667 101.271 10.16 101.538 10.08C101.831 10 102.111 9.89333 102.378 9.76C102.671 9.62667 102.951 9.48 103.218 9.32C103.484 9.16 103.778 9.08 104.098 9.08C104.231 9.08 104.378 9.10667 104.538 9.16C104.698 9.18667 104.884 9.2 105.098 9.2C105.364 9.2 105.631 9.18667 105.898 9.16C106.164 9.13333 106.431 9.12 106.698 9.12C107.604 9.12 108.324 9.41333 108.858 10C109.391 10.5867 109.791 11.32 110.058 12.2C110.324 13.08 110.484 14.04 110.538 15.08C110.618 16.12 110.658 17.0933 110.658 18C110.658 19.2 110.591 20.4667 110.458 21.8C110.351 23.1067 110.271 24.32 110.218 25.44V26.16C110.218 26.8267 110.164 27.4533 110.058 28.04C109.951 28.6267 109.844 29.1733 109.738 29.68C109.498 29.5467 109.244 29.4533 108.978 29.4C108.738 29.3733 108.498 29.36 108.258 29.36C107.751 29.36 107.244 29.4133 106.738 29.52C106.231 29.6267 105.711 29.68 105.178 29.68H104.898C104.764 29.68 104.684 29.6667 104.658 29.64C104.764 29.24 104.818 28.64 104.818 27.84C104.818 27.0667 104.764 26.28 104.658 25.48C104.551 24.68 104.471 23.84 104.418 22.96C104.364 22.2133 104.338 21.4133 104.338 20.56C104.364 19.7067 104.338 18.9333 104.258 18.24C104.204 17.5467 104.071 16.9733 103.858 16.52C103.671 16.04 103.338 15.8 102.858 15.8C102.218 15.8 101.711 15.9467 101.338 16.24C100.964 16.5067 100.684 16.8933 100.498 17.4C100.311 17.88 100.191 18.44 100.138 19.08C100.084 19.72 100.058 20.4 100.058 21.12C100.058 21.4133 100.058 21.6933 100.058 21.96C100.084 22.2267 100.098 22.4933 100.098 22.76C100.098 23.7733 100.031 24.7867 99.8978 25.8C99.7911 26.8133 99.7378 27.76 99.7378 28.64C99.7378 28.8267 99.7378 29 99.7378 29.16C99.7645 29.3467 99.7911 29.52 99.8178 29.68ZM109.738 26.72C109.844 25.8933 109.924 25.0667 109.978 24.24C110.004 24.1067 110.018 23.9867 110.018 23.88C110.018 23.7733 110.018 23.6533 110.018 23.52V22.8C110.018 20.88 109.951 19.1333 109.818 17.56C109.684 15.96 109.431 14.5867 109.058 13.44C108.711 12.2933 108.231 11.4 107.618 10.76C107.031 10.12 106.271 9.8 105.338 9.8C104.538 9.8 103.844 9.85333 103.258 9.96C102.698 10.0667 102.218 10.2 101.818 10.36C101.418 10.52 101.084 10.7067 100.818 10.92C100.551 11.1067 100.338 11.28 100.178 11.44C100.178 11.4933 100.191 11.5333 100.218 11.56C100.244 11.5867 100.258 11.6267 100.258 11.68C100.231 11.7067 100.218 11.7333 100.218 11.76C100.164 11.76 100.124 11.76 100.098 11.76C100.071 11.7333 100.044 11.72 100.018 11.72C99.9911 11.72 99.9778 11.7067 99.9778 11.68C99.8978 11.68 99.8178 11.7067 99.7378 11.76C99.6845 11.7867 99.6311 11.8 99.5778 11.8C99.5511 11.8 99.5245 11.7867 99.4978 11.76C99.5245 11.5733 99.5645 11.32 99.6178 11C99.6978 10.6533 99.7378 10.3333 99.7378 10.04C99.7378 9.98667 99.7245 9.93333 99.6978 9.88C99.6978 9.8 99.6978 9.73333 99.6978 9.68C98.9778 9.68 98.2845 9.65333 97.6178 9.6C96.9511 9.54667 96.2711 9.52 95.5778 9.52C95.3111 9.52 95.1511 9.61333 95.0978 9.8C95.0711 9.96 95.0578 10.12 95.0578 10.28C95.0845 10.3067 95.0978 10.3333 95.0978 10.36C95.0978 10.4133 95.1111 10.4667 95.1378 10.52C95.1911 10.4667 95.2045 10.4 95.1778 10.32C95.1778 10.24 95.2445 10.2 95.3778 10.2C95.1645 10.7333 95.0311 11.2533 94.9778 11.76C94.9245 12.2667 94.8978 12.7867 94.8978 13.32C94.8978 14.1467 94.9245 14.9733 94.9778 15.8C95.0311 16.6 95.0578 17.4133 95.0578 18.24C95.0578 18.5867 95.0445 18.9333 95.0178 19.28C95.0178 19.6267 95.0178 19.9867 95.0178 20.36C95.0178 20.8133 95.0178 21.2533 95.0178 21.68C95.0445 22.08 95.0578 22.48 95.0578 22.88C95.0578 23.8667 94.9911 24.8133 94.8578 25.72C94.7511 26.6 94.6978 27.5067 94.6978 28.44C95.5511 28.44 96.3111 28.56 96.9778 28.8C97.6711 29.0133 98.3911 29.12 99.1378 29.12C99.3778 29.12 99.4978 29.04 99.4978 28.88C99.5245 28.6933 99.5378 28.4933 99.5378 28.28C99.5378 27.9867 99.4978 27.4133 99.4178 26.56C99.3378 25.7067 99.2978 24.8267 99.2978 23.92C99.2978 22.9867 99.3511 22.0933 99.4578 21.24C99.5645 20.36 99.7111 19.4533 99.8978 18.52C99.9511 18.2267 100.004 17.92 100.058 17.6C100.111 17.28 100.178 17.0267 100.258 16.84C100.338 16.6533 100.471 16.4667 100.658 16.28C100.844 16.0667 101.044 15.88 101.258 15.72C101.471 15.5333 101.698 15.3867 101.938 15.28C102.178 15.1733 102.391 15.12 102.578 15.12C103.111 15.12 103.538 15.3067 103.858 15.68C104.204 16.0267 104.471 16.5067 104.658 17.12C104.871 17.7067 105.018 18.3733 105.098 19.12C105.178 19.8667 105.231 20.64 105.258 21.44C105.311 22.24 105.338 23.0267 105.338 23.8C105.364 24.5733 105.404 25.2667 105.458 25.88C105.484 26.12 105.498 26.36 105.498 26.6C105.524 26.8133 105.538 27.04 105.538 27.28V28.76C105.538 28.8667 105.484 28.92 105.378 28.92C105.298 28.92 105.258 28.9867 105.258 29.12C105.604 29.0667 105.978 29.0267 106.378 29C106.778 28.9733 107.191 28.96 107.618 28.96C108.444 28.96 109.084 29.0533 109.538 29.24C109.591 28.3867 109.658 27.5467 109.738 26.72ZM117.506 24.2V24.52V24.8L117.426 25.44C117.426 25.6533 117.412 25.8667 117.386 26.08C117.386 26.2933 117.386 26.56 117.386 26.88V27.36C117.386 27.4133 117.372 27.4667 117.346 27.52C117.346 27.5467 117.346 27.5867 117.346 27.64L117.386 27.92C117.359 27.9733 117.346 28.2667 117.346 28.8H117.266V28.96C117.212 28.96 117.159 28.9867 117.106 29.04L116.986 29.08L116.946 29C116.866 28.92 116.732 28.88 116.546 28.88C116.492 28.88 116.332 28.9067 116.066 28.96H115.706C115.599 29.0133 115.439 29.04 115.226 29.04C114.986 29.04 114.746 29.0267 114.506 29C114.292 29 114.079 28.9733 113.866 28.92L113.706 28.96C113.492 28.9333 113.306 28.92 113.146 28.92C112.986 28.92 112.852 28.92 112.746 28.92H112.626V28.84C112.519 28.76 112.466 28.7067 112.466 28.68V28.08C112.439 28.0267 112.426 27.8 112.426 27.4L112.386 26.48L112.466 25.76C112.519 25.5467 112.559 25.3867 112.586 25.28C112.612 25.1467 112.652 24.8933 112.706 24.52C112.599 24.4933 112.546 24.4267 112.546 24.32L112.666 24.16L112.946 24.08C113.052 23.9733 113.292 23.92 113.666 23.92C113.959 23.92 114.292 23.9467 114.666 24C115.066 24.0533 115.452 24.08 115.826 24.08C116.092 24.08 116.319 24.08 116.506 24.08C116.692 24.0533 116.852 24.04 116.986 24.04C117.226 24.04 117.399 24.0933 117.506 24.2ZM117.026 27.8L117.066 26.84V26.48V26.4C117.066 26.2933 117.052 26.1867 117.026 26.08C117.026 25.9733 117.026 25.6667 117.026 25.16V25.04C117.026 24.9333 116.999 24.8533 116.946 24.8C116.812 24.8 116.679 24.8133 116.546 24.84C116.439 24.84 116.332 24.84 116.226 24.84C116.172 24.84 116.132 24.84 116.106 24.84C116.079 24.8133 116.039 24.8 115.986 24.8L115.426 24.72H114.906V24.68C114.852 24.68 114.812 24.6933 114.786 24.72C114.759 24.72 114.732 24.72 114.706 24.72V24.68C113.826 24.68 113.346 24.6667 113.266 24.64L113.026 24.68C112.999 24.7333 112.986 24.8933 112.986 25.16V27.12V27.92V28.08C113.066 28.16 113.092 28.2667 113.066 28.4C113.039 28.5067 113.186 28.5467 113.506 28.52L114.506 28.48C114.532 28.48 114.652 28.48 114.866 28.48C115.106 28.4533 115.452 28.4267 115.906 28.4L116.986 28.24C117.012 28.1867 117.026 28.04 117.026 27.8ZM129.979 10.24C131.072 10.2667 132.045 10.1333 132.899 9.84C132.925 10.0267 132.925 10.2 132.899 10.36C132.899 10.4933 132.952 10.56 133.059 10.56C133.032 11.2533 132.992 12.0267 132.939 12.88C132.912 13.7333 132.805 14.4667 132.619 15.08H132.179C131.619 15.08 131.032 15.1467 130.419 15.28C129.832 15.3867 129.272 15.44 128.739 15.44C128.125 15.44 127.592 15.2933 127.139 15C127.005 16.12 126.912 17.3867 126.859 18.8C126.832 20.1867 126.792 21.6 126.739 23.04C126.685 23.6533 126.619 24.2667 126.539 24.88C126.459 25.4933 126.419 26.0667 126.419 26.6C126.419 27 126.445 27.4133 126.499 27.84C126.552 28.2667 126.685 28.5733 126.899 28.76C126.819 28.9467 126.672 29.04 126.459 29.04C126.379 29.04 126.285 29.0267 126.179 29C126.099 29 125.992 28.9867 125.859 28.96C124.925 28.9067 124.099 28.88 123.379 28.88C122.659 28.8533 121.912 28.84 121.139 28.84C121.059 28.7333 121.019 28.4933 121.019 28.12C121.019 27.88 121.032 27.6267 121.059 27.36C121.112 27.0933 121.139 26.7733 121.139 26.4C121.139 25.8667 121.112 25.24 121.059 24.52C121.032 23.8 121.019 23.04 121.019 22.24C121.019 21.7867 121.059 21.3467 121.139 20.92C121.219 20.4933 121.259 20.0533 121.259 19.6C121.259 18.96 121.232 18.32 121.179 17.68C121.125 17.04 121.085 16.44 121.059 15.88C120.632 15.8267 120.179 15.76 119.699 15.68C119.245 15.6 118.872 15.56 118.579 15.56C118.552 15.4267 118.539 15.2667 118.539 15.08C118.539 14.8667 118.525 14.6533 118.499 14.44V11.36C118.499 11.0667 118.485 10.7867 118.459 10.52C118.432 10.2533 118.392 10.04 118.339 9.88C118.392 9.74667 118.432 9.68 118.459 9.68C118.485 9.65333 118.499 9.56 118.499 9.4C118.792 9.45333 119.125 9.54667 119.499 9.68C119.899 9.81333 120.312 9.88 120.739 9.88C120.899 9.64 120.992 9.38667 121.019 9.12C121.072 8.82667 121.112 8.52 121.139 8.2C121.192 7.85333 121.259 7.48 121.339 7.08C121.445 6.65333 121.605 6.2 121.819 5.72C122.059 5.21333 122.285 4.8 122.499 4.48C122.712 4.16 122.925 3.90667 123.139 3.72C123.352 3.53333 123.565 3.38667 123.779 3.28C124.019 3.17333 124.272 3.06667 124.539 2.96C124.752 2.88 124.912 2.77333 125.019 2.64C125.125 2.48 125.312 2.4 125.579 2.4C125.792 2.4 125.979 2.36 126.139 2.28C126.325 2.17333 126.512 2.06666 126.699 1.96C126.885 1.85333 127.072 1.76 127.259 1.68C127.445 1.57333 127.659 1.52 127.899 1.52C127.979 1.52 128.019 1.57333 128.019 1.68L127.979 1.72C128.379 1.66667 128.899 1.58667 129.539 1.48C130.179 1.34667 130.819 1.28 131.459 1.28C131.992 1.28 132.419 1.30667 132.739 1.36C133.059 1.41333 133.219 1.66667 133.219 2.12C133.219 2.36 133.205 2.62667 133.179 2.92C133.179 3.21333 133.179 3.54667 133.179 3.92C133.179 4.34667 133.192 4.78667 133.219 5.24C133.245 5.69333 133.312 6.17333 133.419 6.68C132.752 6.86667 132.005 7.02667 131.179 7.16C130.379 7.29333 129.765 7.36 129.339 7.36C129.099 7.36 128.912 7.36 128.779 7.36C128.672 7.33333 128.552 7.32 128.419 7.32C127.885 7.37333 127.445 7.58667 127.099 7.96C126.752 8.33333 126.579 8.78667 126.579 9.32C126.579 9.66667 126.672 10.0133 126.859 10.36C127.872 10.2267 128.912 10.1867 129.979 10.24ZM130.659 14.6C131.165 14.5467 131.659 14.4133 132.139 14.2L132.259 13.24C132.339 12.2267 132.379 11.56 132.379 11.24C132.405 10.92 132.445 10.6533 132.499 10.44C132.285 10.4933 132.139 10.52 132.059 10.52C131.445 10.4667 130.939 10.4267 130.539 10.4C130.139 10.3733 129.859 10.36 129.699 10.36C129.272 10.36 128.845 10.4267 128.419 10.56C128.019 10.6667 127.605 10.72 127.179 10.72L126.499 10.64C126.312 10.2933 126.219 9.90667 126.219 9.48C126.219 8.84 126.432 8.26667 126.859 7.76C127.312 7.22667 127.859 6.96 128.499 6.96C128.632 6.96 128.765 6.97333 128.899 7C129.032 7 129.205 7 129.419 7C129.819 7 130.325 6.94667 130.939 6.84C131.579 6.73333 132.205 6.58667 132.819 6.4C132.845 6.05333 132.859 5.57333 132.859 4.96C132.885 4.34667 132.899 3.61333 132.899 2.76C132.899 2.30667 132.832 2.02667 132.699 1.92C132.592 1.78666 132.259 1.72 131.699 1.72C131.245 1.72 130.699 1.84 130.059 2.08C129.445 2.29333 128.859 2.4 128.299 2.4C128.085 2.37333 127.899 2.36 127.739 2.36C127.605 2.33333 127.512 2.32 127.459 2.32C126.685 2.37333 126.072 2.58667 125.619 2.96C125.192 3.33333 124.752 3.69333 124.299 4.04C124.432 3.82667 124.619 3.64 124.859 3.48C125.099 3.32 125.232 3.14666 125.259 2.96C124.272 3.41333 123.459 4.02667 122.819 4.8C122.205 5.57333 121.899 6.62667 121.899 7.96V8.32C122.032 7.57333 122.259 6.89333 122.579 6.28C122.925 5.66667 123.299 5.16 123.699 4.76C123.165 5.45333 122.725 6.29333 122.379 7.28C122.059 8.26666 121.859 9.28 121.779 10.32L121.659 10.44L121.539 10.4C121.379 10.4 121.232 10.4667 121.099 10.6C120.992 10.7333 120.819 10.8 120.579 10.8C120.445 10.7733 120.325 10.76 120.219 10.76C120.112 10.7333 120.005 10.72 119.899 10.72C119.632 10.72 119.379 10.8267 119.139 11.04C118.925 11.2267 118.819 11.64 118.819 12.28C118.819 12.7333 118.832 13.16 118.859 13.56C118.912 13.9333 118.952 14.2933 118.979 14.64H119.659C120.059 14.64 120.445 14.6133 120.819 14.56C121.219 14.48 121.485 14.28 121.619 13.96C121.619 14.36 121.712 14.6533 121.899 14.84C121.819 15.1333 121.779 15.4 121.779 15.64C121.779 16.0933 121.819 16.56 121.899 17.04C122.005 17.52 122.059 18 122.059 18.48C122.059 18.8533 122.032 19.2 121.979 19.52C121.925 19.84 121.899 20.1867 121.899 20.56C121.899 20.8533 121.912 21.32 121.939 21.96C121.965 22.5733 122.005 23.24 122.059 23.96C122.112 24.6533 122.165 25.32 122.219 25.96C122.272 26.6 122.325 27.08 122.379 27.4C122.379 27.64 122.365 27.8 122.339 27.88C122.739 28.0133 123.192 28.0933 123.699 28.12C124.232 28.1467 124.752 28.1867 125.259 28.24C125.365 27.84 125.419 27.3867 125.419 26.88C125.419 26.7467 125.405 26.6267 125.379 26.52C125.379 26.4133 125.379 26.2933 125.379 26.16C125.379 24.4 125.472 22.7067 125.659 21.08C125.872 19.4267 125.979 17.7067 125.979 15.92V14.6C126.139 14.44 126.352 14.3733 126.619 14.4C126.885 14.4267 127.099 14.4 127.259 14.32C127.339 14.3733 127.379 14.4133 127.379 14.44V14.52C127.379 14.5733 127.459 14.6133 127.619 14.64C127.779 14.6667 127.952 14.68 128.139 14.68C128.325 14.68 128.499 14.68 128.659 14.68C128.845 14.68 128.965 14.68 129.019 14.68C129.605 14.68 130.152 14.6533 130.659 14.6ZM159.175 13.52C159.335 14.5067 159.415 15.56 159.415 16.68V17.68C159.362 18.88 159.268 20.1067 159.135 21.36C159.002 22.6133 158.935 23.8133 158.935 24.96C158.935 25.3333 158.948 25.7067 158.975 26.08C159.002 26.4267 159.015 26.7867 159.015 27.16C159.015 27.4267 158.975 27.6933 158.895 27.96C158.842 28.2 158.815 28.4267 158.815 28.64C158.815 28.7467 158.868 28.8 158.975 28.8C159.108 28.8 159.175 28.8667 159.175 29C158.802 29.08 158.362 29.1333 157.855 29.16C157.375 29.2133 156.882 29.2533 156.375 29.28C155.895 29.3067 155.428 29.3333 154.975 29.36C154.522 29.3867 154.162 29.4267 153.895 29.48C153.922 28.9467 153.948 28.3333 153.975 27.64C154.002 26.9467 154.015 26.2267 154.015 25.48C154.015 25.0533 154.002 24.64 153.975 24.24C153.948 23.84 153.935 23.44 153.935 23.04C153.935 22.5067 153.948 22 153.975 21.52C154.002 21.04 154.015 20.5733 154.015 20.12C154.015 19.5867 153.962 19.0667 153.855 18.56C153.748 18.0533 153.588 17.6133 153.375 17.24C153.162 16.84 152.882 16.52 152.535 16.28C152.188 16.04 151.775 15.92 151.295 15.92C151.028 15.92 150.722 15.9867 150.375 16.12C150.135 16.8667 149.975 17.6667 149.895 18.52C149.815 19.3733 149.775 20.2667 149.775 21.2C149.775 22.2667 149.802 23.3467 149.855 24.44C149.908 25.5067 149.935 26.56 149.935 27.6C149.935 27.8667 149.922 28.12 149.895 28.36C149.895 28.5733 149.895 28.8 149.895 29.04C149.762 29.04 149.642 29.0267 149.535 29C149.428 29 149.308 29 149.175 29C148.695 29 148.188 29.0133 147.655 29.04C147.148 29.0933 146.655 29.12 146.175 29.12H145.695C145.402 29.12 145.188 29.0667 145.055 28.96C144.922 28.8533 144.708 28.7733 144.415 28.72C144.575 28.0267 144.682 27.2933 144.735 26.52C144.815 25.72 144.855 24.92 144.855 24.12C144.855 22.76 144.762 21.4133 144.575 20.08C144.388 18.7467 144.135 17.5067 143.815 16.36C143.495 16.04 143.082 15.88 142.575 15.88C141.962 15.88 141.468 16.0133 141.095 16.28C140.748 16.52 140.482 16.8667 140.295 17.32C140.135 17.7467 140.028 18.2667 139.975 18.88C139.948 19.4667 139.935 20.12 139.935 20.84C139.935 21.4533 139.962 22.0933 140.015 22.76C140.068 23.4267 140.095 24.0933 140.095 24.76C140.095 25.2667 140.068 25.76 140.015 26.24C139.988 26.6933 139.975 27.1333 139.975 27.56C139.975 28.04 140.015 28.4533 140.095 28.8C139.962 28.9067 139.815 28.9733 139.655 29C139.495 29.0267 139.322 29.04 139.135 29.04C138.922 29.04 138.695 29.0267 138.455 29C138.215 29 137.962 29 137.695 29C137.135 29 136.615 29.0667 136.135 29.2C135.682 29.36 135.268 29.4667 134.895 29.52C134.788 29.44 134.722 29.3067 134.695 29.12C134.695 28.96 134.695 28.7867 134.695 28.6C134.695 28.3867 134.682 28.2 134.655 28.04C134.655 27.88 134.602 27.7733 134.495 27.72C134.522 27.6667 134.535 27.5333 134.535 27.32V26.92C134.535 25.96 134.495 24.9467 134.415 23.88C134.362 22.7867 134.335 21.68 134.335 20.56C134.335 17.76 134.335 15.5867 134.335 14.04C134.335 12.4667 134.348 11.2933 134.375 10.52C134.402 9.74667 134.428 9.28 134.455 9.12C134.508 8.93333 134.575 8.84 134.655 8.84C134.735 8.84 134.802 8.89333 134.855 9C134.935 9.08 135.002 9.14667 135.055 9.2C135.962 9.30667 136.855 9.36 137.735 9.36C138.615 9.36 139.522 9.37333 140.455 9.4C140.535 9.53333 140.562 9.69333 140.535 9.88C140.535 10.0667 140.548 10.24 140.575 10.4C141.188 10.1867 141.828 9.96 142.495 9.72C143.162 9.48 143.922 9.36 144.775 9.36C146.562 9.36 147.935 9.84 148.895 10.8C149.242 10.6133 149.588 10.4267 149.935 10.24C150.282 10.0267 150.655 9.84 151.055 9.68C151.455 9.49333 151.908 9.34667 152.415 9.24C152.922 9.10667 153.522 9.04 154.215 9.04C154.855 9.04 155.442 9.10667 155.975 9.24C156.508 9.37333 156.962 9.52 157.335 9.68C157.735 9.84 158.042 10 158.255 10.16C158.495 10.32 158.628 10.4267 158.655 10.48C158.868 11.4933 159.042 12.5067 159.175 13.52ZM156.895 28.84C157.562 28.84 158.068 28.7867 158.415 28.68C158.575 26.8133 158.655 24.88 158.655 22.88C158.655 20.88 158.588 18.88 158.455 16.88C158.348 14.88 158.202 12.92 158.015 11C157.615 10.6533 157.188 10.3333 156.735 10.04C156.282 9.72 155.748 9.56 155.135 9.56C154.868 9.56 154.495 9.58667 154.015 9.64C153.535 9.69333 153.042 9.77333 152.535 9.88C152.028 9.98667 151.548 10.12 151.095 10.28C150.668 10.4133 150.362 10.5733 150.175 10.76L149.695 11.24C149.535 11.4 149.362 11.5333 149.175 11.64C149.015 11.7467 148.842 11.8 148.655 11.8C148.442 11.8 148.148 11.6933 147.775 11.48C147.402 11.2667 147.108 11.1067 146.895 11C146.415 10.7867 145.922 10.64 145.415 10.56C144.908 10.4533 144.468 10.4 144.095 10.4C143.402 10.4 142.762 10.52 142.175 10.76C141.615 10.9733 141.122 11.2133 140.695 11.48C140.535 11.56 140.402 11.68 140.295 11.84C140.215 11.9733 140.055 12.04 139.815 12.04C139.948 11.56 140.015 11.2267 140.015 11.04C140.015 10.6133 139.962 10.2 139.855 9.8C139.108 9.74667 138.348 9.73333 137.575 9.76C136.802 9.76 136.068 9.70667 135.375 9.6L135.295 9.68C135.295 9.73333 135.308 9.77333 135.335 9.8C135.282 10.7333 135.242 11.6533 135.215 12.56C135.188 13.44 135.175 14.32 135.175 15.2C135.175 16.48 135.188 17.7333 135.215 18.96C135.242 20.16 135.255 21.4 135.255 22.68C135.255 23.3733 135.215 24.0533 135.135 24.72C135.082 25.3867 135.055 26.0667 135.055 26.76C135.055 27.1333 135.068 27.4933 135.095 27.84C135.122 28.1867 135.188 28.5467 135.295 28.92C135.988 28.76 136.682 28.68 137.375 28.68C138.095 28.6533 138.802 28.6133 139.495 28.56C139.442 28.2667 139.415 27.9867 139.415 27.72C139.415 27.4533 139.402 27.1733 139.375 26.88C139.375 26.6667 139.348 26.4267 139.295 26.16C139.242 25.8933 139.215 25.64 139.215 25.4C139.215 25.1867 139.242 24.9733 139.295 24.76C139.348 24.52 139.375 24.2667 139.375 24C139.375 23.6267 139.362 23.24 139.335 22.84C139.335 22.44 139.335 22.04 139.335 21.64V19.6C139.335 19.0933 139.375 18.56 139.455 18C139.535 17.44 139.682 16.92 139.895 16.44C140.135 15.96 140.428 15.5733 140.775 15.28C141.148 14.96 141.615 14.8 142.175 14.8C142.602 14.8 142.922 14.9067 143.135 15.12C143.375 15.3333 143.602 15.5467 143.815 15.76C143.948 15.92 144.108 16.0533 144.295 16.16C144.482 16.2667 144.628 16.3867 144.735 16.52C144.975 16.84 145.162 17.2533 145.295 17.76C145.428 18.2667 145.522 18.8267 145.575 19.44C145.655 20.0267 145.695 20.64 145.695 21.28C145.722 21.8933 145.735 22.48 145.735 23.04V23.84C145.735 24.6667 145.708 25.4533 145.655 26.2C145.628 26.9467 145.588 27.64 145.535 28.28C145.588 28.2533 145.708 28.24 145.895 28.24H146.255C146.788 28.24 147.335 28.2933 147.895 28.4C148.482 28.48 149.042 28.5867 149.575 28.72C149.602 28.6933 149.615 28.56 149.615 28.32C149.615 27.92 149.575 27.5467 149.495 27.2C149.442 26.8533 149.415 26.4933 149.415 26.12C149.415 25.4 149.442 24.6667 149.495 23.92C149.575 23.1733 149.615 22.3733 149.615 21.52C149.615 21.2533 149.602 20.9733 149.575 20.68C149.548 20.3867 149.535 20.0667 149.535 19.72V17.36C149.535 17.0933 149.535 16.8533 149.535 16.64C149.562 16.4267 149.615 16.2533 149.695 16.12C149.855 15.9067 150.175 15.6933 150.655 15.48C151.162 15.2667 151.588 15.16 151.935 15.16C152.175 15.16 152.415 15.2533 152.655 15.44C152.895 15.6267 153.108 15.8533 153.295 16.12C153.482 16.3867 153.642 16.6667 153.775 16.96C153.935 17.2267 154.055 17.4533 154.135 17.64C154.375 18.2533 154.535 18.9467 154.615 19.72C154.722 20.4667 154.775 21.2533 154.775 22.08C154.775 23.2 154.722 24.3333 154.615 25.48C154.535 26.6 154.468 27.6133 154.415 28.52C155.268 28.7333 156.095 28.84 156.895 28.84Z" fill="#FF0000"/>
</g>
<defs>
<filter id="filter0_d_55_3" x="0.919922" y="0.400024" width="162.495" height="37.4" filterUnits="userSpaceOnUse" color-interpolation-filters="sRGB">
<feFlood flood-opacity="0" result="BackgroundImageFix"/>
<feColorMatrix in="SourceAlpha" type="matrix" values="0 0 0 0 0 0 0 0 0 0 0 0 0 0 0 0 0 0 127 0" result="hardAlpha"/>
<feOffset dy="4"/>
<feGaussianBlur stdDeviation="2"/>
<feComposite in2="hardAlpha" operator="out"/>
<feColorMatrix type="matrix" values="0 0 0 0 0 0 0 0 0 0 0 0 0 0 0 0 0 0 0.25 0"/>
<feBlend mode="normal" in2="BackgroundImageFix" result="effect1_dropShadow_55_3"/>
<feBlend mode="normal" in="SourceGraphic" in2="effect1_dropShadow_55_3" result="shape"/>
</filter>
</defs>
</svg>
